<?xml version="1.0" encoding="UTF-8" standalone="no"?>
<!-- Uploaded to: SVG Repo, www.svgrepo.com, Generator: SVG Repo Mixer Tools -->

<svg
   fill="#000000"
   width="800px"
   height="800px"
   viewBox="0 0 24 24"
   role="img"
   version="1.1"
   id="svg1"
   sodipodi:docname="icon.svg"
   xml:space="preserve"
   inkscape:version="1.4 (e7c3feb100, 2024-10-09)"
   xmlns:inkscape="http://www.inkscape.org/namespaces/inkscape"
   xmlns:sodipodi="http://sodipodi.sourceforge.net/DTD/sodipodi-0.dtd"
   xmlns="http://www.w3.org/2000/svg"
   xmlns:svg="http://www.w3.org/2000/svg"
   xmlns:rdf="http://www.w3.org/1999/02/22-rdf-syntax-ns#"
   xmlns:cc="http://creativecommons.org/ns#"
   xmlns:dc="http://purl.org/dc/elements/1.1/"><defs
     id="defs1" /><sodipodi:namedview
     id="namedview1"
     pagecolor="#ffffff"
     bordercolor="#000000"
     borderopacity="0.25"
     inkscape:showpageshadow="2"
     inkscape:pageopacity="0.0"
     inkscape:pagecheckerboard="0"
     inkscape:deskcolor="#d1d1d1"
     inkscape:zoom="0.2521875"
     inkscape:cx="176.45601"
     inkscape:cy="973.48203"
     inkscape:window-width="1920"
     inkscape:window-height="1016"
     inkscape:window-x="0"
     inkscape:window-y="0"
     inkscape:window-maximized="1"
     inkscape:current-layer="svg1" /><title
     id="title1">pixiv icon</title><rect
     style="opacity:1;fill:#ffffff;fill-opacity:1;stroke-width:0.0487266"
     id="rect1"
     width="24"
     height="24"
     x="0"
     y="0" /><path
     d="M 0,0 V 24 H 24 V 0 Z m 12.745,4.547 c 2.181,0 4.058,0.676 5.399,1.847 1.352369,1.1695209 2.125471,2.8720985 2.116,4.66 0.005,1.854 -0.88,3.476 -2.257,4.563 -1.375,1.092 -3.225,1.697 -5.258,1.697 -2.314,0 -4.46,-0.842 -4.46,-0.842 v 2.718 c 0.397,0.116 1.048,0.365 0.635,0.779 H 5.79 C 5.38,19.559 5.98,19.319 6.434,19.19 V 7.666 c -1.053,0.81 -1.593,1.51 -1.868,2.031 0.32,1.02 -0.284,0.969 -0.284,0.969 l -1.09,-1.73 c 0,0 3.868,-4.39 9.553,-4.39 z m -0.19,0.971 C 11.132,5.515 9.371,5.991 8.285,6.762 v 8.646 c 0.988,0.487 2.484,0.832 4.26,0.832 h 0.01 c 1.596,0 2.98,-0.593 3.93,-1.533 0.952,-0.948 1.486,-2.183 1.492,-3.683 C 17.972,9.484 17.473,8.16 16.557,7.164 15.639,6.172 14.283,5.519 12.555,5.518 Z"
     id="path1"
     sodipodi:nodetypes="cccccccccsccccccccccccccsscccc"
     style="fill:#0096fa;fill-opacity:1" /><metadata
     id="metadata1"><rdf:RDF><cc:Work
         rdf:about=""><dc:title>pixiv icon</dc:title></cc:Work></rdf:RDF></metadata></svg>
